<?xml version="1.0" standalone="no"?>
<!DOCTYPE svg PUBLIC "-//W3C//DTD SVG 20010904//EN"
 "http://www.w3.org/TR/2001/REC-SVG-20010904/DTD/svg10.dtd">
<svg version="1.0" xmlns="http://www.w3.org/2000/svg"
 width="64.000000pt" height="55.000000pt" viewBox="0 0 64.000000 55.000000"
 preserveAspectRatio="xMidYMid meet">

<g transform="translate(0.000000,55.000000) scale(0.100000,-0.100000)"
fill="#000000" stroke="none">
<path d="M0 275 l0 -275 320 0 320 0 0 275 0 275 -320 0 -320 0 0 -275z m390
135 c0 -27 3 -30 33 -30 l33 0 -11 -110 c-7 -78 -14 -114 -25 -120 -24 -15
-30 -1 -30 68 0 75 -13 103 -61 127 -38 20 -37 33 4 37 27 2 33 8 35 31 4 37
22 35 22 -3z m-64 -99 c17 -10 34 -28 37 -40 5 -20 2 -21 -94 -21 -103 0 -115
6 -86 42 32 41 94 49 143 19z m34 -101 c0 -6 -38 -10 -95 -10 -57 0 -95 4 -95
10 0 6 38 10 95 10 57 0 95 -4 95 -10z m2 -52 c-12 -15 -192 -12 -192 3 0 5
46 9 101 9 80 0 99 -3 91 -12z"/>
</g>
</svg>
